# xmcd CD database file
#
# Track frame offsets:
#	187
#	20145
#	41877
#	61642
#
# Disc length: 1107 seconds
#
# Revision: 0
# Processed by: cddbd v1.5.1PL0 Copyright (c) Steve Scherf et al.
# Submitted via: CDex 1.51
#
DISCID=2f045104
DTITLE=Cublic - そばにいて
DYEAR=1993
DGENRE=JPop
TTITLE0=そばにいて
TTITLE1=KEEPだったのに…
TTITLE2=そばにいて(カラオケ)
TTITLE3=KEEPだったのに(カラオケ)
EXTD=YEAR: 1993
EXTT0=
EXTT1=
EXTT2=
EXTT3=
PLAYORDER=
